<svg xmlns="http://www.w3.org/2000/svg" viewBox="0 0 64 64" fill="none" stroke="currentColor" stroke-width="2" stroke-linecap="round" stroke-linejoin="round">
  <path d="M20 43C15.58 43 12 39.42 12 35C12 30.58 15.58 27 20 27C21.68 27 23.23 27.5 24.5 28.5C25.77 27.5 27.32 27 29 27C33.42 27 37 30.58 37 35C37 39.42 33.42 43 29 43H20Z" fill="#D3D3D3"/>
  <path d="M16 35C16 31.69 18.69 29 22 29C23.68 29 25.23 29.5 26.5 30.5C27.77 29.5 29.32 29 31 29C34.69 29 38 32.31 38 36C38 39.69 34.69 43 31 43H22C18.69 43 16 40.31 16 37V35Z" fill="#778899"/>
  <path d="M44 20C44 16.69 46.69 14 50 14C51.68 14 53.23 14.5 54.5 15.5C55.77 14.5 57.32 14 59 14C62.69 14 66 17.31 66 21C66 24.69 62.69 28 59 28H50C46.69 28 44 25.31 44 22V20Z" fill="#D3D3D3"/>
  <path d="M50 14C50 10.69 52.69 8 56 8C57.68 8 59.23 8.5 60.5 9.5C61.77 8.5 63.32 8 65 8C68.69 8 72 11.31 72 15C72 18.69 68.69 22 65 22H56C52.69 22 50 19.31 50 16V14Z" fill="#778899"/>
</svg>