<svg xmlns="http://www.w3.org/2000/svg" viewBox="0 0 64 64" fill="none">
  <g>
    <path d="M32 4C25.4 4 20 9.4 20 16C20 17.2 20.2 18.4 20.6 19.6C16.2 20.6 12.8 23.8 12.8 28.8C12.8 34.2 16.8 38 22.4 38H41.6C47.2 38 51.2 34.2 51.2 28.8C51.2 23.8 47.8 20.6 43.4 19.6C43.8 18.4 44 17.2 44 16C44 9.4 38.6 4 32 4ZM32 6C36.6 6 40 9.4 40 16C40 17.6 39.8 19.2 39.4 20.8C37.6 20.2 35.4 20 32 20C28.6 20 26.4 20.2 24.6 20.8C24.2 19.2 24 17.6 24 16C24 9.4 27.4 6 32 6ZM22.4 30C19.8 30 18 31.8 18 34.4C18 37 19.8 38.8 22.4 38.8H41.6C44.2 38.8 46 37 46 34.4C46 31.8 44.2 30 41.6 30H22.4ZM22.4 32H41.6C42.4 32 43 32.6 43 34.4C43 36.2 42.4 36.8 41.6 36.8H22.4C21.6 36.8 21 36.2 21 34.4C21 32.6 21.6 32 22.4 32ZM32 42C29.8 42 28 43.8 28 46C28 48.2 29.8 50 32 50C34.2 50 36 48.2 36 46C36 43.8 34.2 42 32 42ZM32 44C33.2 44 34 44.8 34 46C34 47.2 33.2 48 32 48C30.8 48 30 47.2 30 46C30 44.8 30.8 44 32 44Z" fill="#34495E"/>
    <path d="M16 54C14.9 54 14 54.9 14 56C14 57.1 14.9 58 16 58H48C49.1 58 50 57.1 50 56C50 54.9 49.1 54 48 54H16Z" fill="#2C3E50"/>
  </g>
</svg>